<svg xmlns="http://www.w3.org/2000/svg" version="1.1" xmlns:xlink="http://www.w3.org/1999/xlink" xmlns:svgjs="http://svgjs.com/svgjs" width="350" height="200" preserveAspectRatio="none" viewBox="0 0 350 200"><g mask="url(&quot;#SvgjsMask1036&quot;)" fill="none"><rect width="350" height="200" x="0" y="0" fill="#1e3266"></rect><path d="M379.1666666666667 200L0 200 L0 102.02Q29.07 101.93, 29.166666666666664 131Q32.9 117.23, 46.666666666666664 120.96Q54.12 99.25, 75.83333333333333 106.7Q87.72 101.09, 93.33333333333333 112.97Q110.27 112.41, 110.83333333333333 129.35Q119.47 120.49, 128.33333333333331 129.13Q131.9 115.19, 145.83333333333331 118.76Q145.89 101.31, 163.33333333333331 101.37Q179.07 99.61, 180.83333333333331 115.35Q204.68 110.03, 209.99999999999997 133.87Q210.73 105.43, 239.16666666666663 106.16Q249.32 98.81, 256.66666666666663 108.97Q277.11 111.91, 274.16666666666663 132.35Q288.71 117.72, 303.3333333333333 132.26Q304.82 104.58, 332.5 106.07Q341.12 97.19, 350 105.81Q375.54 102.19, 379.1666666666667 127.73z" fill="#182f5d"></path><path d="M355.8333333333333 200L0 200 L0 129.86Q20.97 133.33, 17.5 154.3Q11.85 131.15, 35 125.5Q61.83 123.17, 64.16666666666666 150Q71.6 128.27, 93.33333333333331 135.7Q102.46 127.32, 110.83333333333331 136.45Q125.28 133.4, 128.33333333333331 147.85Q148.43 138.78, 157.49999999999997 158.88Q158.67 130.88, 186.66666666666663 132.05Q192.9 120.78, 204.16666666666663 127.01Q228.5 122.18, 233.3333333333333 146.52Q247.55 143.24, 250.8333333333333 157.45Q251.85 129.3, 279.99999999999994 130.32Q299.77 132.59, 297.49999999999994 152.37Q301.99 127.7, 326.66666666666663 132.19Q353.14 129.5, 355.8333333333333 155.98z" fill="#25467d"></path><path d="M367.5 200L0 200 L0 165.86Q8.97 145.67, 29.166666666666664 154.64Q44.45 140.76, 58.33333333333333 156.04Q81.66 150.2, 87.5 173.53Q101.67 170.2, 105 184.37Q111.59 173.46, 122.5 180.05Q127.86 156.24, 151.66666666666666 161.6Q155.09 147.52, 169.16666666666666 150.94Q184.01 136.62, 198.33333333333331 151.47Q217.35 152.99, 215.83333333333331 172.01Q236.52 163.53, 244.99999999999997 184.22Q248.47 158.52, 274.16666666666663 161.99Q283.05 141.7, 303.3333333333333 150.58Q317.42 147.17, 320.8333333333333 161.25Q344.7 155.95, 350 179.82Q358.97 171.29, 367.5 180.26z" fill="#356cb1"></path><path d="M361.6666666666667 200L0 200 L0 207.74Q6.5 185.08, 29.166666666666664 191.58Q37.3 170.55, 58.33333333333333 178.68Q85.95 177.13, 87.5 204.75Q88.84 188.59, 105 189.94Q107.91 175.34, 122.5 178.25Q144.91 183.16, 140 205.56Q136.5 184.56, 157.5 181.07Q178.58 184.65, 175 205.73Q187.19 188.76, 204.16666666666666 200.95Q206.4 185.69, 221.66666666666666 187.92Q224.38 173.13, 239.16666666666666 175.84Q258.94 178.12, 256.66666666666663 197.89Q276.63 188.69, 285.8333333333333 208.66Q289.2 182.86, 315 186.22Q318.37 172.09, 332.5 175.46Q357.22 171.01, 361.6666666666667 195.73z" fill="white"></path></g><defs><mask id="SvgjsMask1036"><rect width="350" height="200" fill="#ffffff"></rect></mask></defs></svg>