<svg version="1.1" id="Layer_1" xmlns="http://www.w3.org/2000/svg" xmlns:xlink="http://www.w3.org/1999/xlink" x="0px" y="0px" viewBox="0 0 1200 1200" enable-background="new 0 0 1200 1200" xml:space="preserve">
<path fill="#8F517F" d="M999.083,876.525c-9.589,4.321-15.712,27.657-29.957,25.877c-27.49-6.986-55.52-3.992-83.434,5.451&#10;&#9;c-53.8,31.061,41.044,34.258,62.311,20.828c-20.461,21.728-47.436,41.607-75.076,58.156c-5.817-5.102-12.027-10.631-22.537-14.806&#10;&#9;c-99.333-45.549-129.223,45.701-15.843,36.715c-27.035,13.232-89.223,54.806-98.969,27.237&#10;&#9;c-85.809-82.182-148.916-5.366-40.233,25.719c-25.764,1.939-62.802,24.489-79.855-6.031&#10;&#9;c-69.138-76.591-136.435-44.464-35.426,17.761c-25.182-2.405-59.673-0.42-83.137-12.681c-20.249-30.24-58.024-92.324-91.933-83.049&#10;&#9;c-29.004,21.364,24.005,58.794,27.821,69.61c-70.317-23.296-64.983-11.094-69.995-55.086&#10;&#9;c-23.963-108.223-87.28-70.067-31.948,14.596c-23.761-14.788-64.1-23.385-53.516-61.12c-2.015-73.217-57.276-73.402-31.903,3.705&#10;&#9;c-3.695,0.587-52.906-43.687-46.732-24.556c0.093,4.856,56.382,50.113,27.539,36.848c-45.922-16.609-76.042,17.745-11.856,27.165&#10;&#9;c19.774,4.243,35.296-2.581,55.825,1.08c14.25,10.624,32.343,20.231,50.007,31.097c-55.486-17.661-106.077,18.848-29.551,30.872&#10;&#9;c106.033-7.995,39.168-20.341,137.678,12.962c-54.996-1.874-90.896,48.728-12.431,43.405&#10;&#9;c100.942-20.51,52.706-33.519,140.687-18.891c30.576-1.032-21.101,12.725-27.491,21.479c-32.804,19.858-24.097,49.34,19.35,35.607&#10;&#9;c100.636-40.156,29.582-56.761,142.519-65.194c-65.752,31.64-48.087,83.037,19.501,37.762c21.105-14.609,34.65-32.231,47.866-55.045&#10;&#9;c25.022-12.354,53.889-23.543,80.82-35.783c-58.58,58.031-21.929,103.952,27.16,23.909c11.576-16.833,14.104-34.853,21.323-54.117&#10;&#9;c20.347-10.866,46.558-40.709,61.772-44.505c-2.327,14.063-15.006,52.256,10.644,52.857c27.171-16.296,22.326-68.657,24.728-93.394&#10;&#9;C988.717,904.341,1012.454,881.716,999.083,876.525z M183.221,323.026c9.42-4.319,15.878-26.817,29.544-26.142&#10;&#9;c25.786,6.516,56.883,4.799,84.482-5.64c53.513-30.059-41.684-33.895-62.887-20.573c5.675-5.494,68.159-64.625,78.542-55.162&#10;&#9;c104.646,70.794,162.281-33.325,34.583-24.756c28.501-13.268,89.299-55.125,99.579-27.085c90.595,84.799,145.417-0.155,39.663-25.04&#10;&#9;c88.5-23.812,58.437-5.027,108.326,30.052c72.766,50.911,76.378-4.494,14.705-37.745c-8.065-4.009-9.151-5.624,8.312-4.321&#10;&#9;c26.445,5.952,55.214-3.891,71.916,19.165c75.499,126.569,137.93,75.103,56.883,6.03c19.832,6.081,53.403,11.163,69.643,27.224&#10;&#9;c-0.817,20.934,18.355,108.002,50.392,92.427c31.467-28.416-40.118-97.634-2.888-72.345c64.548,33.279,31.949,28.054,44.199,78.831&#10;&#9;c21.166,65.049,48.917,15.509,28.271-28.033c50.494,35.614,71.289,46.928,9.35-15.012c38.868,18.984,98.692-6.436,24.543-24.117&#10;&#9;c-18.939-2.604-35.376-0.976-55.178,0.27c-16.035-10.655-35.449-21.991-52.725-33.183c39.079,17.551,113.413-13.315,31.576-30.213&#10;&#9;c-23.9-3.595-49.948,7.242-75.167,10.223c-9.616-4.296-24.089-10.105-36.302-14.127c-4.446-1.459-11.802-3.735-20.116-6.225&#10;&#9;c-25.11-6.659,52.305-1.209,49.174-31.639c-14.22-42.104-110.257,7.557-132.069,11.838c-19.966-4.474-42.583-6.236-64.95-9.112&#10;&#9;c67.826-21.628,87.885-82.759-0.374-48.305c-79.771,50.987-28.785,49.347-121.552,57.1c64.868-31.149,45.37-81.487-19.81-37.658&#10;&#9;c-20.866,14.426-35.969,32.777-48.715,55.796c-25.598,11.867-53.346,23.24-80.654,35.499&#10;&#9;c62.204-63.988,15.755-100.878-29.408-20.142c-11.844,16.068-11.003,35.586-21.257,52.146&#10;&#9;c-17.644,7.547-62.192,54.299-59.651,41.654c2.793-14.117,14.308-51.464-10.788-51.6c-29.62,18.932-19.206,66.067-26.383,95.703&#10;&#9;C193.526,294.991,170.109,319.199,183.221,323.026z M1102.669,612.382c-31.134,21.726-77.901,67.49-57.241-6.643&#10;&#9;c31.044-15.697,62.519-39.797,63.723-77.741c-21.242-68.777-100.955,30.748-102.406,66.774&#10;&#9;c-5.71,10.585-46.822,76.194-46.077,59.628c1.656-32.917,15.159-66.328,11.447-102.523c-12.589-52.663-46.111-10.693-63.724,18.95&#10;&#9;c-0.263-33.777-20.032-51.238-46.56-16.867c-4.495,5.495-5.785,7.763-11.448,15.763c-0.867,0.327-3.195,2.4-1.72-2.59&#10;&#9;c9.605-84.498-39.091-55.157-69.841-6.191c-10.938-57.81-50.377-45.793-83.704-7.862c-34.753,45-48.838,105.344-99.691,137.073&#10;&#9;c-23.49-0.444,20.309-178.292,39.626-127.552c3.56,6.473,5.406,44.645,16.813,8.241c10.384-51.163-42.779-61.014-70.594-23.714&#10;&#9;c-26.149,34.688-30.116,71.402-56.762,107.897c-64.582,113.848-46.564-3.439-38.402-53.844&#10;&#9;c105.75-101.411,106.703-235.626,45.932-192.642c-29.226,28.059-44.283,64.363-60.756,102.145&#10;&#9;c-18.924,44.07-28.09,91.089-30.388,139.376c-20.409,42.09-105.533,138.808-95.672,29.423c6.351-6.725,20.27-10.269,29.451-19.41&#10;&#9;c28.685-22.506,75.299-104.242,15.41-108.908c-60.581,6.54-64.51,79.646-82.36,117.965c-20.855-1.698-30.74-2.982-20.767-25.265&#10;&#9;c71.865-250.458-135.788-87.438-26.469,29.858c6.2,11.486-41.849,86.537-55.035,55.999c-14.039-35.243,29.878-130.639,0.78-130.838&#10;&#9;c-39.044,11.2-32.898,80.775-39.068,109.801c-43.561,57.062-32.028-28.649-29.191-55.46c3.834-29.954,10.187-52.166,18.907-81.577&#10;&#9;c6.002-55.236-50.65,2.856-52.868,29.594c-33.411,84.046-0.873,201.346,70.858,119.309c28.44,78.404,83.952,11.86,98.553-35.542&#10;&#9;c6.877-5.451,24.371,5.198,38.769,1.816c19.775,115.142,96.36,58.352,129.965-11.986c10.874,91.287,69.931,55.151,94.695-6.07&#10;&#9;c18.457-41.424,7.704-2.75,15.258,17.774c27.978,84.674,90.898-11.357,110.159-49.308c5.969,76.146,52.567,88.363,90.342,17.073&#10;&#9;c18.794-35.18,20.692-72.124,56.164-97.226c-1.924,21.257-44.144,157.079,5.04,125.37c10.795-26.175,73.943-168.51,52.626-77.178&#10;&#9;c-3.752,19.882-20.019,102.087,17.939,71.479c12.415-35.906,24.748-76.524,51.831-107.899c7.546,17.267-10.183,57.841-4.374,85.298&#10;&#9;c15.192,79.149,55.163,3.555,71.785-29.61C1015.993,731.639,1132.45,603.542,1102.669,612.382z M1053.69,579.077&#10;&#9;c7.43-14.579,13.977-33.674,31.393-43.048c0.083,16.119-15.689,38-32.197,45.951C1053.255,580.621,1053.383,579.812,1053.69,579.077&#10;&#9;z M495.896,558.02c14.344-43.529,26.291-92.449,55.784-131.387C558.171,467.51,519.321,543.766,495.896,558.02z M353.827,651.416&#10;&#9;c51.683-141.735,71.923-42.297-0.722,3.277C353.536,652.703,353.597,652.027,353.827,651.416z M273.838,640.175&#10;&#9;c-0.298,1.087-0.898,2.09-1.684,3.872c-5.544-33.596-5.454-73.657,6.42-107.445C297.113,565.927,281.914,606.907,273.838,640.175z&#10;&#9; M750.535,620.655c-20.528,57.575-64.787,91.814-42.81-0.495c12.425,9.969,28.982,8.679,43.616-2.787&#10;&#9;C750.937,619.044,750.817,619.879,750.535,620.655z M759.35,583.875c0.373,4.862-23.543,30.193-29.555,18.688&#10;&#9;C730.677,572.234,758.278,512.237,759.35,583.875z" style="fill: rgb(255, 255, 255);"/>
</svg>